<svg width="197" height="104" viewBox="0 0 197 104" fill="none" xmlns="http://www.w3.org/2000/svg">
<g filter="url(#filter0_b_122_60)">
<rect width="197" height="104" rx="20" fill="white" fill-opacity="0.1"/>
</g>
<path d="M65.98 37V35L71.1 29.98C71.5533 29.54 71.92 29.1333 72.2 28.76C72.48 28.3867 72.6867 28.02 72.82 27.66C72.9533 27.2867 73.02 26.88 73.02 26.44C73.02 26.04 72.94 25.6933 72.78 25.4C72.6333 25.0933 72.3733 24.86 72 24.7C71.64 24.54 71.1333 24.46 70.48 24.46H66.38V22.52C67.0067 22.4133 67.7 22.32 68.46 22.24C69.2333 22.16 70.0733 22.12 70.98 22.12C72.1267 22.12 73.0267 22.28 73.68 22.6C74.3333 22.9067 74.8 23.36 75.08 23.96C75.36 24.5467 75.5 25.2467 75.5 26.06C75.5 26.7267 75.4067 27.34 75.22 27.9C75.0467 28.46 74.7733 29 74.4 29.52C74.04 30.0267 73.58 30.5533 73.02 31.1L69.28 34.76H75.98V37H65.98ZM78.2973 37.02C78.044 37.02 77.9173 36.9 77.9173 36.66V34.76C77.9173 34.5067 78.044 34.38 78.2973 34.38H79.7173C79.9707 34.38 80.0973 34.5067 80.0973 34.76V36.66C80.0973 36.7933 80.0573 36.8867 79.9773 36.94C79.9107 36.9933 79.824 37.02 79.7173 37.02H78.2973ZM87.6509 37.1C86.8109 37.1 85.9443 37.0733 85.0509 37.02C84.1576 36.9667 83.3309 36.9 82.5709 36.82V34.88H87.7509C88.2709 34.88 88.6976 34.7933 89.0309 34.62C89.3643 34.4467 89.6109 34.2133 89.7709 33.92C89.9309 33.6133 90.0109 33.2867 90.0109 32.94V31.7C90.0109 31.1533 89.8643 30.7267 89.5709 30.42C89.2776 30.1 88.8043 29.94 88.1509 29.94H86.8509C86.3576 29.94 85.9709 30.0467 85.6909 30.26C85.4243 30.4733 85.2509 30.8 85.1709 31.24H82.8309L83.2509 22.24H91.9509V24.46H85.3909L85.1909 28.64C85.3776 28.4 85.6576 28.2067 86.0309 28.06C86.4043 27.9133 86.8443 27.84 87.3509 27.84H89.0109C89.7843 27.84 90.4243 27.9933 90.9309 28.3C91.4509 28.5933 91.8376 29 92.0909 29.52C92.3576 30.0267 92.4909 30.6067 92.4909 31.26V33.44C92.4909 34.28 92.2976 34.9733 91.9109 35.52C91.5376 36.0533 90.9909 36.4533 90.2709 36.72C89.5509 36.9733 88.6776 37.1 87.6509 37.1ZM98.5752 37.08C97.8018 37.08 97.1285 36.9467 96.5552 36.68C95.9818 36.4 95.5418 35.9867 95.2352 35.44C94.9285 34.88 94.7752 34.1867 94.7752 33.36V25.94C94.7752 25.1 94.9285 24.4 95.2352 23.84C95.5552 23.2667 96.0018 22.84 96.5752 22.56C97.1485 22.2667 97.8218 22.12 98.5952 22.12H101.615C102.442 22.12 103.122 22.2733 103.655 22.58C104.202 22.8867 104.608 23.3267 104.875 23.9C105.142 24.46 105.275 25.14 105.275 25.94V33.36C105.275 34.5867 104.948 35.5133 104.295 36.14C103.642 36.7667 102.742 37.08 101.595 37.08H98.5752ZM99.1552 34.84H100.955C101.595 34.84 102.062 34.6867 102.355 34.38C102.662 34.06 102.815 33.6 102.815 33V26.18C102.815 25.5267 102.655 25.06 102.335 24.78C102.028 24.4867 101.602 24.34 101.055 24.34H99.0752C98.5018 24.34 98.0552 24.5 97.7352 24.82C97.4152 25.1267 97.2552 25.58 97.2552 26.18V33C97.2552 33.6267 97.4218 34.0933 97.7552 34.4C98.0885 34.6933 98.5552 34.84 99.1552 34.84ZM111.583 37.08C110.81 37.08 110.136 36.9467 109.563 36.68C108.99 36.4 108.55 35.9867 108.243 35.44C107.936 34.88 107.783 34.1867 107.783 33.36V25.94C107.783 25.1 107.936 24.4 108.243 23.84C108.563 23.2667 109.01 22.84 109.583 22.56C110.156 22.2667 110.83 22.12 111.603 22.12H114.623C115.45 22.12 116.13 22.2733 116.663 22.58C117.21 22.8867 117.616 23.3267 117.883 23.9C118.15 24.46 118.283 25.14 118.283 25.94V33.36C118.283 34.5867 117.956 35.5133 117.303 36.14C116.65 36.7667 115.75 37.08 114.603 37.08H111.583ZM112.163 34.84H113.963C114.603 34.84 115.07 34.6867 115.363 34.38C115.67 34.06 115.823 33.6 115.823 33V26.18C115.823 25.5267 115.663 25.06 115.343 24.78C115.036 24.4867 114.61 24.34 114.063 24.34H112.083C111.51 24.34 111.063 24.5 110.743 24.82C110.423 25.1267 110.263 25.58 110.263 26.18V33C110.263 33.6267 110.43 34.0933 110.763 34.4C111.096 34.6933 111.563 34.84 112.163 34.84ZM124.631 34.36V25.4H126.631V34.36H124.631ZM121.151 30.88V28.88H130.111V30.88H121.151Z" fill="white"/>
<path d="M39.5412 65.078C39.3506 65.078 39.1209 65.0693 38.8522 65.052C38.5922 65.0433 38.3236 65.026 38.0462 65C37.7689 64.9827 37.5046 64.961 37.2532 64.935C37.0106 64.909 36.8069 64.8787 36.6422 64.844V64.051C36.8589 64.0683 37.1232 64.0857 37.4352 64.103C37.7472 64.1203 38.0809 64.1333 38.4362 64.142C38.8002 64.1507 39.1556 64.155 39.5022 64.155C39.8922 64.155 40.2432 64.116 40.5552 64.038C40.8672 63.96 41.1142 63.817 41.2962 63.609C41.4869 63.401 41.5822 63.102 41.5822 62.712V62.062C41.5822 61.62 41.4696 61.2863 41.2442 61.061C41.0189 60.827 40.6549 60.71 40.1522 60.71H39.1252C38.3366 60.71 37.7169 60.5367 37.2662 60.19C36.8242 59.8433 36.6032 59.2453 36.6032 58.396V57.85C36.6032 56.9487 36.8459 56.3073 37.3312 55.926C37.8166 55.5447 38.5012 55.354 39.3852 55.354C39.6626 55.354 39.9746 55.3713 40.3212 55.406C40.6679 55.432 41.0016 55.4667 41.3222 55.51C41.6516 55.5447 41.9246 55.5837 42.1412 55.627V56.42C41.7599 56.3853 41.3266 56.355 40.8412 56.329C40.3646 56.303 39.9139 56.29 39.4892 56.29C39.0992 56.29 38.7612 56.3377 38.4752 56.433C38.1892 56.5197 37.9682 56.68 37.8122 56.914C37.6649 57.1393 37.5912 57.4643 37.5912 57.889V58.331C37.5912 58.8597 37.7299 59.2237 38.0072 59.423C38.2846 59.6223 38.6702 59.722 39.1642 59.722H40.2692C40.7979 59.722 41.2312 59.8173 41.5692 60.008C41.9072 60.1987 42.1586 60.463 42.3232 60.801C42.4879 61.1303 42.5702 61.5117 42.5702 61.945V62.686C42.5702 63.3273 42.4316 63.8213 42.1542 64.168C41.8856 64.5147 41.5216 64.753 41.0622 64.883C40.6116 65.013 40.1046 65.078 39.5412 65.078ZM46.3939 65.078C45.7265 65.078 45.2109 64.9047 44.8469 64.558C44.4915 64.2113 44.3139 63.674 44.3139 62.946V58.058H45.3409V62.686C45.3409 63.2667 45.4709 63.661 45.7309 63.869C45.9995 64.0683 46.3722 64.168 46.8489 64.168C47.2562 64.168 47.6289 64.1117 47.9669 63.999C48.3049 63.8777 48.6515 63.713 49.0069 63.505V58.058H50.0339V65H49.2279L49.0069 64.233C48.6515 64.4583 48.2485 64.6577 47.7979 64.831C47.3559 64.9957 46.8879 65.078 46.3939 65.078ZM51.9694 68.081V58.058H52.8014L52.9964 58.773C53.1524 58.6603 53.3518 58.5433 53.5944 58.422C53.8458 58.292 54.1144 58.1837 54.4004 58.097C54.6951 58.0103 54.9854 57.967 55.2714 57.967C55.7221 57.967 56.1034 58.0667 56.4154 58.266C56.7361 58.4567 56.9961 58.7167 57.1954 59.046C57.3948 59.3753 57.5378 59.7523 57.6244 60.177C57.7111 60.6017 57.7544 61.048 57.7544 61.516C57.7544 62.296 57.6634 62.9547 57.4814 63.492C57.3081 64.0207 57.0394 64.4193 56.6754 64.688C56.3114 64.9567 55.8434 65.091 55.2714 65.091C54.8814 65.091 54.4871 65.0303 54.0884 64.909C53.6984 64.779 53.3344 64.6187 52.9964 64.428V68.081H51.9694ZM54.9854 64.22C55.3148 64.22 55.6094 64.1377 55.8694 63.973C56.1294 63.8083 56.3374 63.531 56.4934 63.141C56.6494 62.7423 56.7274 62.2007 56.7274 61.516C56.7274 60.866 56.6451 60.346 56.4804 59.956C56.3158 59.5573 56.1034 59.2713 55.8434 59.098C55.5834 58.916 55.2974 58.825 54.9854 58.825C54.5868 58.825 54.2184 58.89 53.8804 59.02C53.5511 59.1413 53.2564 59.2713 52.9964 59.41V63.661C53.2998 63.8257 53.6204 63.96 53.9584 64.064C54.3051 64.168 54.6474 64.22 54.9854 64.22ZM62.1371 65.078C61.4091 65.078 60.8327 64.9697 60.4081 64.753C59.9921 64.5363 59.6931 64.168 59.5111 63.648C59.3291 63.128 59.2381 62.4173 59.2381 61.516C59.2381 60.5973 59.3291 59.8823 59.5111 59.371C59.7017 58.851 60.0094 58.487 60.4341 58.279C60.8587 58.071 61.4307 57.967 62.1501 57.967C62.7654 57.967 63.2637 58.0363 63.6451 58.175C64.0351 58.3137 64.3211 58.552 64.5031 58.89C64.6937 59.2193 64.7891 59.6787 64.7891 60.268C64.7891 60.6753 64.7067 61.0047 64.5421 61.256C64.3861 61.4987 64.1564 61.6763 63.8531 61.789C63.5584 61.893 63.2074 61.945 62.8001 61.945H60.2651C60.2737 62.5083 60.3344 62.9633 60.4471 63.31C60.5597 63.648 60.7634 63.895 61.0581 64.051C61.3614 64.1983 61.8034 64.272 62.3841 64.272H64.6201V64.896C64.2214 64.948 63.8314 64.9913 63.4501 65.026C63.0687 65.0607 62.6311 65.078 62.1371 65.078ZM60.2521 61.269H62.7221C63.1121 61.269 63.3981 61.1997 63.5801 61.061C63.7707 60.9137 63.8661 60.6537 63.8661 60.281C63.8661 59.8823 63.8054 59.5747 63.6841 59.358C63.5714 59.1327 63.3894 58.9767 63.1381 58.89C62.8954 58.7947 62.5661 58.747 62.1501 58.747C61.6647 58.747 61.2834 58.8207 61.0061 58.968C60.7287 59.1067 60.5337 59.358 60.4211 59.722C60.3084 60.086 60.2521 60.6017 60.2521 61.269ZM66.5183 65V58.058H67.2983L67.5453 59.267C67.8573 58.8943 68.2039 58.5867 68.5853 58.344C68.9753 58.1013 69.4216 57.98 69.9243 57.98C70.0456 57.98 70.1583 57.9843 70.2623 57.993C70.3749 58.0017 70.4789 58.019 70.5743 58.045V59.098C70.4616 59.0807 70.3403 59.0677 70.2103 59.059C70.0803 59.0417 69.9503 59.033 69.8203 59.033C69.4996 59.033 69.2136 59.072 68.9623 59.15C68.7109 59.228 68.4726 59.345 68.2473 59.501C68.0219 59.657 67.7879 59.8477 67.5453 60.073V65H66.5183ZM74.3977 65.078C74.0077 65.078 73.6437 65.026 73.3057 64.922C72.9677 64.818 72.673 64.636 72.4217 64.376C72.1704 64.116 71.9754 63.7563 71.8367 63.297C71.698 62.8377 71.6287 62.2527 71.6287 61.542C71.6287 60.8227 71.6937 60.2333 71.8237 59.774C71.9537 59.306 72.14 58.942 72.3827 58.682C72.6254 58.422 72.92 58.24 73.2667 58.136C73.6134 58.032 73.999 57.98 74.4237 57.98C74.7704 57.98 75.1474 57.9973 75.5547 58.032C75.962 58.058 76.352 58.1013 76.7247 58.162V58.773H74.6967C74.2547 58.773 73.882 58.8467 73.5787 58.994C73.2754 59.1413 73.0457 59.4187 72.8897 59.826C72.7337 60.2247 72.6557 60.8053 72.6557 61.568C72.6557 62.3047 72.738 62.868 72.9027 63.258C73.0674 63.648 73.3014 63.9167 73.6047 64.064C73.908 64.2027 74.2764 64.272 74.7097 64.272H76.8287V64.87C76.6294 64.9047 76.3954 64.9393 76.1267 64.974C75.8667 65.0087 75.5894 65.0347 75.2947 65.052C75 65.0693 74.701 65.078 74.3977 65.078ZM78.2487 65V55.081H79.2757V58.825C79.5964 58.591 79.9777 58.3873 80.4197 58.214C80.8704 58.032 81.3384 57.941 81.8237 57.941C82.3091 57.941 82.7077 58.045 83.0197 58.253C83.3404 58.461 83.5744 58.7427 83.7217 59.098C83.8777 59.4533 83.9557 59.8477 83.9557 60.281V65H82.9287V60.385C82.9287 60.0903 82.8681 59.8303 82.7467 59.605C82.6341 59.3797 82.4694 59.202 82.2527 59.072C82.0361 58.942 81.7761 58.877 81.4727 58.877C81.1867 58.877 80.9224 58.9073 80.6797 58.968C80.4371 59.02 80.2031 59.098 79.9777 59.202C79.7524 59.2973 79.5184 59.4143 79.2757 59.553V65H78.2487ZM87.2433 65.078C86.732 65.078 86.3117 64.9263 85.9823 64.623C85.653 64.3197 85.4883 63.8907 85.4883 63.336V62.842C85.4883 62.296 85.666 61.854 86.0213 61.516C86.3853 61.178 86.9313 61.009 87.6593 61.009H90.0123V60.151C90.0123 59.865 89.9603 59.6223 89.8563 59.423C89.761 59.215 89.5833 59.0547 89.3233 58.942C89.072 58.8293 88.7037 58.773 88.2183 58.773H86.0603V58.162C86.3637 58.11 86.7147 58.0623 87.1133 58.019C87.5207 57.9757 87.9973 57.954 88.5433 57.954C89.1067 57.9453 89.5747 58.0147 89.9473 58.162C90.32 58.3093 90.593 58.5433 90.7663 58.864C90.9483 59.176 91.0393 59.5877 91.0393 60.099V65H90.2463L90.0513 64.207C90.0167 64.2417 89.9083 64.3023 89.7263 64.389C89.553 64.4757 89.3277 64.5753 89.0503 64.688C88.7817 64.792 88.487 64.883 88.1663 64.961C87.8543 65.039 87.5467 65.078 87.2433 65.078ZM87.6723 64.311C87.8283 64.3197 88.006 64.3023 88.2053 64.259C88.4047 64.2157 88.6083 64.168 88.8163 64.116C89.0243 64.0553 89.215 63.9947 89.3883 63.934C89.5703 63.8733 89.7177 63.8213 89.8303 63.778C89.943 63.7347 90.0037 63.713 90.0123 63.713V61.529L87.8933 61.62C87.3993 61.6373 87.044 61.7587 86.8273 61.984C86.6193 62.2093 86.5153 62.4997 86.5153 62.855V63.167C86.5153 63.4443 86.5717 63.6697 86.6843 63.843C86.8057 64.0077 86.953 64.1247 87.1263 64.194C87.3083 64.2633 87.4903 64.3023 87.6723 64.311ZM92.9753 65V58.058H93.7553L94.0023 59.267C94.3143 58.8943 94.661 58.5867 95.0423 58.344C95.4323 58.1013 95.8786 57.98 96.3813 57.98C96.5026 57.98 96.6153 57.9843 96.7193 57.993C96.832 58.0017 96.936 58.019 97.0313 58.045V59.098C96.9186 59.0807 96.7973 59.0677 96.6673 59.059C96.5373 59.0417 96.4073 59.033 96.2773 59.033C95.9566 59.033 95.6706 59.072 95.4193 59.15C95.168 59.228 94.9296 59.345 94.7043 59.501C94.479 59.657 94.245 59.8477 94.0023 60.073V65H92.9753ZM100.036 68.185C99.5851 68.185 99.1864 68.12 98.8397 67.99C98.5017 67.8687 98.2331 67.678 98.0337 67.418C97.8431 67.1667 97.7477 66.8503 97.7477 66.469V66.157C97.7477 65.7583 97.8561 65.4247 98.0727 65.156C98.2981 64.8873 98.5797 64.688 98.9177 64.558C99.2557 64.4193 99.6024 64.35 99.9577 64.35L100.218 64.766C99.9577 64.766 99.7151 64.8093 99.4897 64.896C99.2644 64.974 99.0781 65.104 98.9307 65.286C98.7921 65.468 98.7227 65.702 98.7227 65.988V66.274C98.7227 66.69 98.8614 66.9847 99.1387 67.158C99.4161 67.34 99.7931 67.431 100.27 67.431H101.882C102.402 67.431 102.809 67.3313 103.104 67.132C103.407 66.9327 103.559 66.6207 103.559 66.196V65.936C103.559 65.6933 103.511 65.4853 103.416 65.312C103.32 65.1387 103.16 65.0043 102.935 64.909C102.718 64.8137 102.41 64.766 102.012 64.766H99.9187C99.3814 64.766 98.9611 64.6533 98.6577 64.428C98.3631 64.194 98.2157 63.895 98.2157 63.531C98.2157 63.1843 98.3154 62.9113 98.5147 62.712C98.7227 62.5127 99.0131 62.374 99.3857 62.296C99.0651 62.166 98.8137 61.9927 98.6317 61.776C98.4497 61.5507 98.3241 61.3123 98.2547 61.061C98.1854 60.801 98.1507 60.541 98.1507 60.281C98.1507 59.7437 98.2591 59.3103 98.4757 58.981C98.6924 58.6517 99.0001 58.4133 99.3987 58.266C99.8061 58.1187 100.283 58.045 100.829 58.045H104.534V58.63L102.974 58.76C103.086 58.838 103.212 58.942 103.351 59.072C103.489 59.1933 103.606 59.371 103.702 59.605C103.806 59.8303 103.858 60.1423 103.858 60.541C103.858 60.8963 103.78 61.2343 103.624 61.555C103.476 61.8757 103.225 62.14 102.87 62.348C102.514 62.5473 102.025 62.647 101.401 62.647H100.296C99.9317 62.647 99.6414 62.7033 99.4247 62.816C99.2167 62.92 99.1127 63.1107 99.1127 63.388C99.1127 63.596 99.1907 63.7433 99.3467 63.83C99.5027 63.9167 99.6674 63.96 99.8407 63.96H102.142C102.679 63.96 103.121 64.0293 103.468 64.168C103.823 64.3067 104.087 64.519 104.261 64.805C104.443 65.0823 104.534 65.4377 104.534 65.871V66.157C104.534 66.7897 104.317 67.2837 103.884 67.639C103.459 68.003 102.822 68.185 101.973 68.185H100.036ZM100.517 61.854H101.297C101.739 61.854 102.072 61.789 102.298 61.659C102.532 61.5203 102.692 61.3427 102.779 61.126C102.865 60.9093 102.909 60.6753 102.909 60.424C102.909 60.034 102.844 59.7263 102.714 59.501C102.592 59.267 102.419 59.1023 102.194 59.007C101.968 58.903 101.708 58.851 101.414 58.851H100.673C100.179 58.851 99.7887 58.9637 99.5027 59.189C99.2254 59.4057 99.0867 59.787 99.0867 60.333C99.0867 60.8703 99.2124 61.2603 99.4637 61.503C99.7237 61.737 100.075 61.854 100.517 61.854ZM108.475 65.078C107.747 65.078 107.171 64.9697 106.746 64.753C106.33 64.5363 106.031 64.168 105.849 63.648C105.667 63.128 105.576 62.4173 105.576 61.516C105.576 60.5973 105.667 59.8823 105.849 59.371C106.04 58.851 106.347 58.487 106.772 58.279C107.197 58.071 107.769 57.967 108.488 57.967C109.103 57.967 109.602 58.0363 109.983 58.175C110.373 58.3137 110.659 58.552 110.841 58.89C111.032 59.2193 111.127 59.6787 111.127 60.268C111.127 60.6753 111.045 61.0047 110.88 61.256C110.724 61.4987 110.494 61.6763 110.191 61.789C109.896 61.893 109.545 61.945 109.138 61.945H106.603C106.612 62.5083 106.672 62.9633 106.785 63.31C106.898 63.648 107.101 63.895 107.396 64.051C107.699 64.1983 108.141 64.272 108.722 64.272H110.958V64.896C110.559 64.948 110.169 64.9913 109.788 65.026C109.407 65.0607 108.969 65.078 108.475 65.078ZM106.59 61.269H109.06C109.45 61.269 109.736 61.1997 109.918 61.061C110.109 60.9137 110.204 60.6537 110.204 60.281C110.204 59.8823 110.143 59.5747 110.022 59.358C109.909 59.1327 109.727 58.9767 109.476 58.89C109.233 58.7947 108.904 58.747 108.488 58.747C108.003 58.747 107.621 58.8207 107.344 58.968C107.067 59.1067 106.872 59.358 106.759 59.722C106.646 60.086 106.59 60.6017 106.59 61.269ZM115.248 65.078C115.075 65.078 114.862 65.0737 114.611 65.065C114.36 65.0563 114.095 65.0433 113.818 65.026C113.549 65.0087 113.302 64.9913 113.077 64.974C112.86 64.948 112.691 64.922 112.57 64.896V64.272H115.417C115.703 64.272 115.95 64.2503 116.158 64.207C116.366 64.1637 116.526 64.0683 116.639 63.921C116.76 63.7737 116.821 63.5527 116.821 63.258V62.946C116.821 62.6427 116.721 62.4087 116.522 62.244C116.323 62.0707 116.002 61.984 115.56 61.984H114.585C114.178 61.984 113.814 61.932 113.493 61.828C113.181 61.724 112.938 61.5463 112.765 61.295C112.592 61.0437 112.505 60.697 112.505 60.255V59.891C112.505 59.4577 112.587 59.1023 112.752 58.825C112.925 58.5477 113.19 58.3397 113.545 58.201C113.909 58.0623 114.377 57.993 114.949 57.993C115.192 57.993 115.469 58.0017 115.781 58.019C116.102 58.0363 116.414 58.0623 116.717 58.097C117.02 58.123 117.267 58.1533 117.458 58.188V58.812H114.78C114.338 58.812 113.996 58.8857 113.753 59.033C113.519 59.1803 113.402 59.4663 113.402 59.891V60.177C113.402 60.4457 113.458 60.6493 113.571 60.788C113.684 60.918 113.84 61.0047 114.039 61.048C114.247 61.0913 114.485 61.113 114.754 61.113H115.742C116.375 61.113 116.864 61.2603 117.211 61.555C117.558 61.8497 117.731 62.2743 117.731 62.829V63.31C117.731 63.778 117.623 64.142 117.406 64.402C117.198 64.6533 116.908 64.831 116.535 64.935C116.171 65.0303 115.742 65.078 115.248 65.078ZM122.86 68.081V58.058H123.692L123.887 58.773C124.043 58.6603 124.242 58.5433 124.485 58.422C124.736 58.292 125.005 58.1837 125.291 58.097C125.586 58.0103 125.876 57.967 126.162 57.967C126.613 57.967 126.994 58.0667 127.306 58.266C127.627 58.4567 127.887 58.7167 128.086 59.046C128.285 59.3753 128.428 59.7523 128.515 60.177C128.602 60.6017 128.645 61.048 128.645 61.516C128.645 62.296 128.554 62.9547 128.372 63.492C128.199 64.0207 127.93 64.4193 127.566 64.688C127.202 64.9567 126.734 65.091 126.162 65.091C125.772 65.091 125.378 65.0303 124.979 64.909C124.589 64.779 124.225 64.6187 123.887 64.428V68.081H122.86ZM125.876 64.22C126.205 64.22 126.5 64.1377 126.76 63.973C127.02 63.8083 127.228 63.531 127.384 63.141C127.54 62.7423 127.618 62.2007 127.618 61.516C127.618 60.866 127.536 60.346 127.371 59.956C127.206 59.5573 126.994 59.2713 126.734 59.098C126.474 58.916 126.188 58.825 125.876 58.825C125.477 58.825 125.109 58.89 124.771 59.02C124.442 59.1413 124.147 59.2713 123.887 59.41V63.661C124.19 63.8257 124.511 63.96 124.849 64.064C125.196 64.168 125.538 64.22 125.876 64.22ZM132.196 65.013C131.797 65.013 131.463 64.9437 131.195 64.805C130.926 64.6577 130.722 64.4237 130.584 64.103C130.445 63.7737 130.376 63.3317 130.376 62.777V55.081H131.403V62.647C131.403 63.063 131.442 63.3793 131.52 63.596C131.598 63.804 131.71 63.9513 131.858 64.038C132.005 64.116 132.178 64.168 132.378 64.194L133.08 64.272V65.013H132.196ZM135.549 65.078C135.038 65.078 134.617 64.9263 134.288 64.623C133.959 64.3197 133.794 63.8907 133.794 63.336V62.842C133.794 62.296 133.972 61.854 134.327 61.516C134.691 61.178 135.237 61.009 135.965 61.009H138.318V60.151C138.318 59.865 138.266 59.6223 138.162 59.423C138.067 59.215 137.889 59.0547 137.629 58.942C137.378 58.8293 137.009 58.773 136.524 58.773H134.366V58.162C134.669 58.11 135.02 58.0623 135.419 58.019C135.826 57.9757 136.303 57.954 136.849 57.954C137.412 57.9453 137.88 58.0147 138.253 58.162C138.626 58.3093 138.899 58.5433 139.072 58.864C139.254 59.176 139.345 59.5877 139.345 60.099V65H138.552L138.357 64.207C138.322 64.2417 138.214 64.3023 138.032 64.389C137.859 64.4757 137.633 64.5753 137.356 64.688C137.087 64.792 136.793 64.883 136.472 64.961C136.16 65.039 135.852 65.078 135.549 65.078ZM135.978 64.311C136.134 64.3197 136.312 64.3023 136.511 64.259C136.71 64.2157 136.914 64.168 137.122 64.116C137.33 64.0553 137.521 63.9947 137.694 63.934C137.876 63.8733 138.023 63.8213 138.136 63.778C138.249 63.7347 138.309 63.713 138.318 63.713V61.529L136.199 61.62C135.705 61.6373 135.35 61.7587 135.133 61.984C134.925 62.2093 134.821 62.4997 134.821 62.855V63.167C134.821 63.4443 134.877 63.6697 134.99 63.843C135.111 64.0077 135.259 64.1247 135.432 64.194C135.614 64.2633 135.796 64.3023 135.978 64.311ZM143.803 65.078C143.413 65.078 143.049 65.026 142.711 64.922C142.373 64.818 142.078 64.636 141.827 64.376C141.576 64.116 141.381 63.7563 141.242 63.297C141.103 62.8377 141.034 62.2527 141.034 61.542C141.034 60.8227 141.099 60.2333 141.229 59.774C141.359 59.306 141.545 58.942 141.788 58.682C142.031 58.422 142.325 58.24 142.672 58.136C143.019 58.032 143.404 57.98 143.829 57.98C144.176 57.98 144.553 57.9973 144.96 58.032C145.367 58.058 145.757 58.1013 146.13 58.162V58.773H144.102C143.66 58.773 143.287 58.8467 142.984 58.994C142.681 59.1413 142.451 59.4187 142.295 59.826C142.139 60.2247 142.061 60.8053 142.061 61.568C142.061 62.3047 142.143 62.868 142.308 63.258C142.473 63.648 142.707 63.9167 143.01 64.064C143.313 64.2027 143.682 64.272 144.115 64.272H146.234V64.87C146.035 64.9047 145.801 64.9393 145.532 64.974C145.272 65.0087 144.995 65.0347 144.7 65.052C144.405 65.0693 144.106 65.078 143.803 65.078ZM150.306 65.078C149.578 65.078 149.002 64.9697 148.577 64.753C148.161 64.5363 147.862 64.168 147.68 63.648C147.498 63.128 147.407 62.4173 147.407 61.516C147.407 60.5973 147.498 59.8823 147.68 59.371C147.871 58.851 148.178 58.487 148.603 58.279C149.028 58.071 149.6 57.967 150.319 57.967C150.934 57.967 151.433 58.0363 151.814 58.175C152.204 58.3137 152.49 58.552 152.672 58.89C152.863 59.2193 152.958 59.6787 152.958 60.268C152.958 60.6753 152.876 61.0047 152.711 61.256C152.555 61.4987 152.325 61.6763 152.022 61.789C151.727 61.893 151.376 61.945 150.969 61.945H148.434C148.443 62.5083 148.503 62.9633 148.616 63.31C148.729 63.648 148.932 63.895 149.227 64.051C149.53 64.1983 149.972 64.272 150.553 64.272H152.789V64.896C152.39 64.948 152 64.9913 151.619 65.026C151.238 65.0607 150.8 65.078 150.306 65.078ZM148.421 61.269H150.891C151.281 61.269 151.567 61.1997 151.749 61.061C151.94 60.9137 152.035 60.6537 152.035 60.281C152.035 59.8823 151.974 59.5747 151.853 59.358C151.74 59.1327 151.558 58.9767 151.307 58.89C151.064 58.7947 150.735 58.747 150.319 58.747C149.834 58.747 149.452 58.8207 149.175 58.968C148.898 59.1067 148.703 59.358 148.59 59.722C148.477 60.086 148.421 60.6017 148.421 61.269ZM156.936 65.078C156.364 65.078 155.892 64.9567 155.519 64.714C155.155 64.4627 154.882 64.0813 154.7 63.57C154.527 63.05 154.44 62.387 154.44 61.581C154.44 60.723 154.527 60.0297 154.7 59.501C154.874 58.9637 155.151 58.5737 155.532 58.331C155.914 58.0883 156.425 57.967 157.066 57.967C157.456 57.967 157.838 58.0103 158.21 58.097C158.583 58.1837 158.912 58.279 159.198 58.383V55.081H160.225V65H159.393L159.198 64.298C159.068 64.4107 158.873 64.5277 158.613 64.649C158.362 64.7703 158.085 64.8743 157.781 64.961C157.487 65.039 157.205 65.078 156.936 65.078ZM157.235 64.233C157.634 64.233 157.994 64.1723 158.314 64.051C158.644 63.921 158.938 63.7867 159.198 63.648V59.111C158.886 59.0157 158.587 58.9377 158.301 58.877C158.015 58.8077 157.695 58.773 157.339 58.773C156.897 58.773 156.538 58.8553 156.26 59.02C155.983 59.1847 155.779 59.4707 155.649 59.878C155.528 60.2767 155.467 60.8313 155.467 61.542C155.467 62.1833 155.524 62.7033 155.636 63.102C155.758 63.5007 155.948 63.791 156.208 63.973C156.468 64.1463 156.811 64.233 157.235 64.233ZM37.9411 83.078C37.4297 83.078 37.0094 82.9263 36.6801 82.623C36.3507 82.3197 36.1861 81.8907 36.1861 81.336V80.842C36.1861 80.296 36.3637 79.854 36.7191 79.516C37.0831 79.178 37.6291 79.009 38.3571 79.009H40.7101V78.151C40.7101 77.865 40.6581 77.6223 40.5541 77.423C40.4587 77.215 40.2811 77.0547 40.0211 76.942C39.7697 76.8293 39.4014 76.773 38.9161 76.773H36.7581V76.162C37.0614 76.11 37.4124 76.0623 37.8111 76.019C38.2184 75.9757 38.6951 75.954 39.2411 75.954C39.8044 75.9453 40.2724 76.0147 40.6451 76.162C41.0177 76.3093 41.2907 76.5433 41.4641 76.864C41.6461 77.176 41.7371 77.5877 41.7371 78.099V83H40.9441L40.7491 82.207C40.7144 82.2417 40.6061 82.3023 40.4241 82.389C40.2507 82.4757 40.0254 82.5753 39.7481 82.688C39.4794 82.792 39.1847 82.883 38.8641 82.961C38.5521 83.039 38.2444 83.078 37.9411 83.078ZM38.3701 82.311C38.5261 82.3197 38.7037 82.3023 38.9031 82.259C39.1024 82.2157 39.3061 82.168 39.5141 82.116C39.7221 82.0553 39.9127 81.9947 40.0861 81.934C40.2681 81.8733 40.4154 81.8213 40.5281 81.778C40.6407 81.7347 40.7014 81.713 40.7101 81.713V79.529L38.5911 79.62C38.0971 79.6373 37.7417 79.7587 37.5251 79.984C37.3171 80.2093 37.2131 80.4997 37.2131 80.855V81.167C37.2131 81.4443 37.2694 81.6697 37.3821 81.843C37.5034 82.0077 37.6507 82.1247 37.8241 82.194C38.0061 82.2633 38.1881 82.3023 38.3701 82.311ZM45.4931 83.013C45.0944 83.013 44.7607 82.9437 44.4921 82.805C44.2234 82.6577 44.0197 82.4237 43.8811 82.103C43.7424 81.7737 43.6731 81.3317 43.6731 80.777V73.081H44.7001V80.647C44.7001 81.063 44.7391 81.3793 44.8171 81.596C44.8951 81.804 45.0077 81.9513 45.1551 82.038C45.3024 82.116 45.4757 82.168 45.6751 82.194L46.3771 82.272V83.013H45.4931ZM50.2503 83.078C49.7477 83.078 49.3057 83.026 48.9243 82.922C48.5517 82.818 48.2397 82.636 47.9883 82.376C47.737 82.116 47.5507 81.7563 47.4293 81.297C47.308 80.829 47.2473 80.2353 47.2473 79.516C47.2473 78.788 47.308 78.1943 47.4293 77.735C47.5507 77.267 47.737 76.9073 47.9883 76.656C48.2397 76.396 48.5517 76.2183 48.9243 76.123C49.3057 76.019 49.7477 75.967 50.2503 75.967C50.753 75.967 51.1907 76.019 51.5633 76.123C51.9447 76.227 52.261 76.409 52.5123 76.669C52.7637 76.9203 52.95 77.28 53.0713 77.748C53.2013 78.2073 53.2663 78.7967 53.2663 79.516C53.2663 80.244 53.2013 80.842 53.0713 81.31C52.95 81.7693 52.7637 82.129 52.5123 82.389C52.2697 82.6403 51.9577 82.818 51.5763 82.922C51.195 83.026 50.753 83.078 50.2503 83.078ZM50.2503 82.233C50.571 82.233 50.8527 82.2027 51.0953 82.142C51.3467 82.0813 51.5547 81.96 51.7193 81.778C51.884 81.596 52.0097 81.323 52.0963 80.959C52.183 80.595 52.2263 80.114 52.2263 79.516C52.2263 78.9093 52.183 78.4283 52.0963 78.073C52.0097 77.7177 51.884 77.449 51.7193 77.267C51.5547 77.085 51.3467 76.9637 51.0953 76.903C50.8527 76.8423 50.571 76.812 50.2503 76.812C49.921 76.812 49.635 76.8423 49.3923 76.903C49.1497 76.9637 48.946 77.085 48.7813 77.267C48.6167 77.449 48.491 77.7177 48.4043 78.073C48.3177 78.4283 48.2743 78.9093 48.2743 79.516C48.2743 80.114 48.3177 80.595 48.4043 80.959C48.491 81.323 48.6167 81.596 48.7813 81.778C48.946 81.96 49.1497 82.0813 49.3923 82.142C49.635 82.2027 49.921 82.233 50.2503 82.233ZM54.9973 83V76.058H55.8033L56.0243 76.825C56.3536 76.591 56.7393 76.3873 57.1813 76.214C57.6233 76.032 58.0826 75.941 58.5593 75.941C59.0706 75.941 59.4823 76.0493 59.7943 76.266C60.1063 76.4827 60.3359 76.7687 60.4833 77.124C60.6306 77.4793 60.7043 77.865 60.7043 78.281V83H59.6773V78.398C59.6773 78.1033 59.6166 77.8433 59.4953 77.618C59.3826 77.384 59.2179 77.202 59.0013 77.072C58.7933 76.942 58.5333 76.877 58.2213 76.877C57.9353 76.877 57.6666 76.9073 57.4153 76.968C57.1726 77.02 56.9386 77.098 56.7133 77.202C56.4966 77.2973 56.2669 77.4143 56.0243 77.553V83H54.9973ZM64.3429 86.185C63.8922 86.185 63.4935 86.12 63.1469 85.99C62.8089 85.8687 62.5402 85.678 62.3409 85.418C62.1502 85.1667 62.0549 84.8503 62.0549 84.469V84.157C62.0549 83.7583 62.1632 83.4247 62.3799 83.156C62.6052 82.8873 62.8869 82.688 63.2249 82.558C63.5629 82.4193 63.9095 82.35 64.2649 82.35L64.5249 82.766C64.2649 82.766 64.0222 82.8093 63.7969 82.896C63.5715 82.974 63.3852 83.104 63.2379 83.286C63.0992 83.468 63.0299 83.702 63.0299 83.988V84.274C63.0299 84.69 63.1685 84.9847 63.4459 85.158C63.7232 85.34 64.1002 85.431 64.5769 85.431H66.1889C66.7089 85.431 67.1162 85.3313 67.4109 85.132C67.7142 84.9327 67.8659 84.6207 67.8659 84.196V83.936C67.8659 83.6933 67.8182 83.4853 67.7229 83.312C67.6275 83.1387 67.4672 83.0043 67.2419 82.909C67.0252 82.8137 66.7175 82.766 66.3189 82.766H64.2259C63.6885 82.766 63.2682 82.6533 62.9649 82.428C62.6702 82.194 62.5229 81.895 62.5229 81.531C62.5229 81.1843 62.6225 80.9113 62.8219 80.712C63.0299 80.5127 63.3202 80.374 63.6929 80.296C63.3722 80.166 63.1209 79.9927 62.9389 79.776C62.7569 79.5507 62.6312 79.3123 62.5619 79.061C62.4925 78.801 62.4579 78.541 62.4579 78.281C62.4579 77.7437 62.5662 77.3103 62.7829 76.981C62.9995 76.6517 63.3072 76.4133 63.7059 76.266C64.1132 76.1187 64.5899 76.045 65.1359 76.045H68.8409V76.63L67.2809 76.76C67.3935 76.838 67.5192 76.942 67.6579 77.072C67.7965 77.1933 67.9135 77.371 68.0089 77.605C68.1129 77.8303 68.1649 78.1423 68.1649 78.541C68.1649 78.8963 68.0869 79.2343 67.9309 79.555C67.7835 79.8757 67.5322 80.14 67.1769 80.348C66.8215 80.5473 66.3319 80.647 65.7079 80.647H64.6029C64.2389 80.647 63.9485 80.7033 63.7319 80.816C63.5239 80.92 63.4199 81.1107 63.4199 81.388C63.4199 81.596 63.4979 81.7433 63.6539 81.83C63.8099 81.9167 63.9745 81.96 64.1479 81.96H66.4489C66.9862 81.96 67.4282 82.0293 67.7749 82.168C68.1302 82.3067 68.3945 82.519 68.5679 82.805C68.7499 83.0823 68.8409 83.4377 68.8409 83.871V84.157C68.8409 84.7897 68.6242 85.2837 68.1909 85.639C67.7662 86.003 67.1292 86.185 66.2799 86.185H64.3429ZM64.8239 79.854H65.6039C66.0459 79.854 66.3795 79.789 66.6049 79.659C66.8389 79.5203 66.9992 79.3427 67.0859 79.126C67.1725 78.9093 67.2159 78.6753 67.2159 78.424C67.2159 78.034 67.1509 77.7263 67.0209 77.501C66.8995 77.267 66.7262 77.1023 66.5009 77.007C66.2755 76.903 66.0155 76.851 65.7209 76.851H64.9799C64.4859 76.851 64.0959 76.9637 63.8099 77.189C63.5325 77.4057 63.3939 77.787 63.3939 78.333C63.3939 78.8703 63.5195 79.2603 63.7709 79.503C64.0309 79.737 64.3819 79.854 64.8239 79.854ZM73.634 86.081V76.058H74.466L74.661 76.773C74.817 76.6603 75.0163 76.5433 75.259 76.422C75.5103 76.292 75.779 76.1837 76.065 76.097C76.3597 76.0103 76.65 75.967 76.936 75.967C77.3867 75.967 77.768 76.0667 78.08 76.266C78.4007 76.4567 78.6607 76.7167 78.86 77.046C79.0593 77.3753 79.2023 77.7523 79.289 78.177C79.3757 78.6017 79.419 79.048 79.419 79.516C79.419 80.296 79.328 80.9547 79.146 81.492C78.9727 82.0207 78.704 82.4193 78.34 82.688C77.976 82.9567 77.508 83.091 76.936 83.091C76.546 83.091 76.1517 83.0303 75.753 82.909C75.363 82.779 74.999 82.6187 74.661 82.428V86.081H73.634ZM76.65 82.22C76.9793 82.22 77.274 82.1377 77.534 81.973C77.794 81.8083 78.002 81.531 78.158 81.141C78.314 80.7423 78.392 80.2007 78.392 79.516C78.392 78.866 78.3097 78.346 78.145 77.956C77.9803 77.5573 77.768 77.2713 77.508 77.098C77.248 76.916 76.962 76.825 76.65 76.825C76.2513 76.825 75.883 76.89 75.545 77.02C75.2157 77.1413 74.921 77.2713 74.661 77.41V81.661C74.9643 81.8257 75.285 81.96 75.623 82.064C75.9697 82.168 76.312 82.22 76.65 82.22ZM83.9056 83.078C83.403 83.078 82.961 83.026 82.5796 82.922C82.207 82.818 81.895 82.636 81.6436 82.376C81.3923 82.116 81.206 81.7563 81.0846 81.297C80.9633 80.829 80.9026 80.2353 80.9026 79.516C80.9026 78.788 80.9633 78.1943 81.0846 77.735C81.206 77.267 81.3923 76.9073 81.6436 76.656C81.895 76.396 82.207 76.2183 82.5796 76.123C82.961 76.019 83.403 75.967 83.9056 75.967C84.4083 75.967 84.846 76.019 85.2186 76.123C85.6 76.227 85.9163 76.409 86.1676 76.669C86.419 76.9203 86.6053 77.28 86.7266 77.748C86.8566 78.2073 86.9216 78.7967 86.9216 79.516C86.9216 80.244 86.8566 80.842 86.7266 81.31C86.6053 81.7693 86.419 82.129 86.1676 82.389C85.925 82.6403 85.613 82.818 85.2316 82.922C84.8503 83.026 84.4083 83.078 83.9056 83.078ZM83.9056 82.233C84.2263 82.233 84.508 82.2027 84.7506 82.142C85.002 82.0813 85.21 81.96 85.3746 81.778C85.5393 81.596 85.665 81.323 85.7516 80.959C85.8383 80.595 85.8816 80.114 85.8816 79.516C85.8816 78.9093 85.8383 78.4283 85.7516 78.073C85.665 77.7177 85.5393 77.449 85.3746 77.267C85.21 77.085 85.002 76.9637 84.7506 76.903C84.508 76.8423 84.2263 76.812 83.9056 76.812C83.5763 76.812 83.2903 76.8423 83.0476 76.903C82.805 76.9637 82.6013 77.085 82.4366 77.267C82.272 77.449 82.1463 77.7177 82.0596 78.073C81.973 78.4283 81.9296 78.9093 81.9296 79.516C81.9296 80.114 81.973 80.595 82.0596 80.959C82.1463 81.323 82.272 81.596 82.4366 81.778C82.6013 81.96 82.805 82.0813 83.0476 82.142C83.2903 82.2027 83.5763 82.233 83.9056 82.233ZM88.6526 86.081V76.058H89.4846L89.6796 76.773C89.8356 76.6603 90.0349 76.5433 90.2776 76.422C90.5289 76.292 90.7976 76.1837 91.0836 76.097C91.3782 76.0103 91.6686 75.967 91.9546 75.967C92.4052 75.967 92.7866 76.0667 93.0986 76.266C93.4192 76.4567 93.6792 76.7167 93.8786 77.046C94.0779 77.3753 94.2209 77.7523 94.3076 78.177C94.3942 78.6017 94.4376 79.048 94.4376 79.516C94.4376 80.296 94.3466 80.9547 94.1646 81.492C93.9912 82.0207 93.7226 82.4193 93.3586 82.688C92.9946 82.9567 92.5266 83.091 91.9546 83.091C91.5646 83.091 91.1702 83.0303 90.7716 82.909C90.3816 82.779 90.0176 82.6187 89.6796 82.428V86.081H88.6526ZM91.6686 82.22C91.9979 82.22 92.2926 82.1377 92.5526 81.973C92.8126 81.8083 93.0206 81.531 93.1766 81.141C93.3326 80.7423 93.4106 80.2007 93.4106 79.516C93.4106 78.866 93.3282 78.346 93.1636 77.956C92.9989 77.5573 92.7866 77.2713 92.5266 77.098C92.2666 76.916 91.9806 76.825 91.6686 76.825C91.2699 76.825 90.9016 76.89 90.5636 77.02C90.2342 77.1413 89.9396 77.2713 89.6796 77.41V81.661C89.9829 81.8257 90.3036 81.96 90.6416 82.064C90.9882 82.168 91.3306 82.22 91.6686 82.22ZM98.2352 83.078C97.5678 83.078 97.0522 82.9047 96.6882 82.558C96.3328 82.2113 96.1552 81.674 96.1552 80.946V76.058H97.1822V80.686C97.1822 81.2667 97.3122 81.661 97.5722 81.869C97.8408 82.0683 98.2135 82.168 98.6902 82.168C99.0975 82.168 99.4702 82.1117 99.8082 81.999C100.146 81.8777 100.493 81.713 100.848 81.505V76.058H101.875V83H101.069L100.848 82.233C100.493 82.4583 100.09 82.6577 99.6392 82.831C99.1972 82.9957 98.7292 83.078 98.2352 83.078ZM105.631 83.013C105.232 83.013 104.898 82.9437 104.63 82.805C104.361 82.6577 104.157 82.4237 104.019 82.103C103.88 81.7737 103.811 81.3317 103.811 80.777V73.081H104.838V80.647C104.838 81.063 104.877 81.3793 104.955 81.596C105.033 81.804 105.145 81.9513 105.293 82.038C105.44 82.116 105.613 82.168 105.813 82.194L106.515 82.272V83.013H105.631ZM108.984 83.078C108.473 83.078 108.052 82.9263 107.723 82.623C107.394 82.3197 107.229 81.8907 107.229 81.336V80.842C107.229 80.296 107.407 79.854 107.762 79.516C108.126 79.178 108.672 79.009 109.4 79.009H111.753V78.151C111.753 77.865 111.701 77.6223 111.597 77.423C111.502 77.215 111.324 77.0547 111.064 76.942C110.813 76.8293 110.444 76.773 109.959 76.773H107.801V76.162C108.104 76.11 108.455 76.0623 108.854 76.019C109.261 75.9757 109.738 75.954 110.284 75.954C110.847 75.9453 111.315 76.0147 111.688 76.162C112.061 76.3093 112.334 76.5433 112.507 76.864C112.689 77.176 112.78 77.5877 112.78 78.099V83H111.987L111.792 82.207C111.757 82.2417 111.649 82.3023 111.467 82.389C111.294 82.4757 111.068 82.5753 110.791 82.688C110.522 82.792 110.228 82.883 109.907 82.961C109.595 83.039 109.287 83.078 108.984 83.078ZM109.413 82.311C109.569 82.3197 109.747 82.3023 109.946 82.259C110.145 82.2157 110.349 82.168 110.557 82.116C110.765 82.0553 110.956 81.9947 111.129 81.934C111.311 81.8733 111.458 81.8213 111.571 81.778C111.684 81.7347 111.744 81.713 111.753 81.713V79.529L109.634 79.62C109.14 79.6373 108.785 79.7587 108.568 79.984C108.36 80.2093 108.256 80.4997 108.256 80.855V81.167C108.256 81.4443 108.312 81.6697 108.425 81.843C108.546 82.0077 108.694 82.1247 108.867 82.194C109.049 82.2633 109.231 82.3023 109.413 82.311ZM114.716 83V76.058H115.496L115.743 77.267C116.055 76.8943 116.402 76.5867 116.783 76.344C117.173 76.1013 117.619 75.98 118.122 75.98C118.243 75.98 118.356 75.9843 118.46 75.993C118.573 76.0017 118.677 76.019 118.772 76.045V77.098C118.659 77.0807 118.538 77.0677 118.408 77.059C118.278 77.0417 118.148 77.033 118.018 77.033C117.697 77.033 117.411 77.072 117.16 77.15C116.909 77.228 116.67 77.345 116.445 77.501C116.22 77.657 115.986 77.8477 115.743 78.073V83H114.716ZM123.577 83V76.058H124.357L124.604 77.267C124.916 76.8943 125.263 76.5867 125.644 76.344C126.034 76.1013 126.481 75.98 126.983 75.98C127.105 75.98 127.217 75.9843 127.321 75.993C127.434 76.0017 127.538 76.019 127.633 76.045V77.098C127.521 77.0807 127.399 77.0677 127.269 77.059C127.139 77.0417 127.009 77.033 126.879 77.033C126.559 77.033 126.273 77.072 126.021 77.15C125.77 77.228 125.532 77.345 125.306 77.501C125.081 77.657 124.847 77.8477 124.604 78.073V83H123.577ZM131.691 83.078C131.188 83.078 130.746 83.026 130.365 82.922C129.992 82.818 129.68 82.636 129.429 82.376C129.177 82.116 128.991 81.7563 128.87 81.297C128.748 80.829 128.688 80.2353 128.688 79.516C128.688 78.788 128.748 78.1943 128.87 77.735C128.991 77.267 129.177 76.9073 129.429 76.656C129.68 76.396 129.992 76.2183 130.365 76.123C130.746 76.019 131.188 75.967 131.691 75.967C132.193 75.967 132.631 76.019 133.004 76.123C133.385 76.227 133.701 76.409 133.953 76.669C134.204 76.9203 134.39 77.28 134.512 77.748C134.642 78.2073 134.707 78.7967 134.707 79.516C134.707 80.244 134.642 80.842 134.512 81.31C134.39 81.7693 134.204 82.129 133.953 82.389C133.71 82.6403 133.398 82.818 133.017 82.922C132.635 83.026 132.193 83.078 131.691 83.078ZM131.691 82.233C132.011 82.233 132.293 82.2027 132.536 82.142C132.787 82.0813 132.995 81.96 133.16 81.778C133.324 81.596 133.45 81.323 133.537 80.959C133.623 80.595 133.667 80.114 133.667 79.516C133.667 78.9093 133.623 78.4283 133.537 78.073C133.45 77.7177 133.324 77.449 133.16 77.267C132.995 77.085 132.787 76.9637 132.536 76.903C132.293 76.8423 132.011 76.812 131.691 76.812C131.361 76.812 131.075 76.8423 130.833 76.903C130.59 76.9637 130.386 77.085 130.222 77.267C130.057 77.449 129.931 77.7177 129.845 78.073C129.758 78.4283 129.715 78.9093 129.715 79.516C129.715 80.114 129.758 80.595 129.845 80.959C129.931 81.323 130.057 81.596 130.222 81.778C130.386 81.96 130.59 82.0813 130.833 82.142C131.075 82.2027 131.361 82.233 131.691 82.233ZM138.505 83.078C137.837 83.078 137.322 82.9047 136.958 82.558C136.602 82.2113 136.425 81.674 136.425 80.946V76.058H137.452V80.686C137.452 81.2667 137.582 81.661 137.842 81.869C138.11 82.0683 138.483 82.168 138.96 82.168C139.367 82.168 139.74 82.1117 140.078 81.999C140.416 81.8777 140.762 81.713 141.118 81.505V76.058H142.145V83H141.339L141.118 82.233C140.762 82.4583 140.359 82.6577 139.909 82.831C139.467 82.9957 138.999 83.078 138.505 83.078ZM146.381 83C145.931 83 145.558 82.9263 145.263 82.779C144.969 82.6317 144.752 82.3933 144.613 82.064C144.475 81.7347 144.41 81.297 144.418 80.751L144.457 76.903H143.352V76.24L144.47 76.058L144.639 74.121H145.432V76.058H147.434V76.903H145.432V80.751C145.432 81.0543 145.463 81.297 145.523 81.479C145.593 81.661 145.679 81.7997 145.783 81.895C145.896 81.9903 146.013 82.0597 146.134 82.103C146.256 82.1377 146.373 82.1593 146.485 82.168L147.33 82.246V83H146.381ZM151.506 83.078C150.778 83.078 150.201 82.9697 149.777 82.753C149.361 82.5363 149.062 82.168 148.88 81.648C148.698 81.128 148.607 80.4173 148.607 79.516C148.607 78.5973 148.698 77.8823 148.88 77.371C149.07 76.851 149.378 76.487 149.803 76.279C150.227 76.071 150.799 75.967 151.519 75.967C152.134 75.967 152.632 76.0363 153.014 76.175C153.404 76.3137 153.69 76.552 153.872 76.89C154.062 77.2193 154.158 77.6787 154.158 78.268C154.158 78.6753 154.075 79.0047 153.911 79.256C153.755 79.4987 153.525 79.6763 153.222 79.789C152.927 79.893 152.576 79.945 152.169 79.945H149.634C149.642 80.5083 149.703 80.9633 149.816 81.31C149.928 81.648 150.132 81.895 150.427 82.051C150.73 82.1983 151.172 82.272 151.753 82.272H153.989V82.896C153.59 82.948 153.2 82.9913 152.819 83.026C152.437 83.0607 152 83.078 151.506 83.078ZM149.621 79.269H152.091C152.481 79.269 152.767 79.1997 152.949 79.061C153.139 78.9137 153.235 78.6537 153.235 78.281C153.235 77.8823 153.174 77.5747 153.053 77.358C152.94 77.1327 152.758 76.9767 152.507 76.89C152.264 76.7947 151.935 76.747 151.519 76.747C151.033 76.747 150.652 76.8207 150.375 76.968C150.097 77.1067 149.902 77.358 149.79 77.722C149.677 78.086 149.621 78.6017 149.621 79.269ZM158.279 83.078C158.106 83.078 157.893 83.0737 157.642 83.065C157.391 83.0563 157.126 83.0433 156.849 83.026C156.58 83.0087 156.333 82.9913 156.108 82.974C155.891 82.948 155.722 82.922 155.601 82.896V82.272H158.448C158.734 82.272 158.981 82.2503 159.189 82.207C159.397 82.1637 159.557 82.0683 159.67 81.921C159.791 81.7737 159.852 81.5527 159.852 81.258V80.946C159.852 80.6427 159.752 80.4087 159.553 80.244C159.354 80.0707 159.033 79.984 158.591 79.984H157.616C157.209 79.984 156.845 79.932 156.524 79.828C156.212 79.724 155.969 79.5463 155.796 79.295C155.623 79.0437 155.536 78.697 155.536 78.255V77.891C155.536 77.4577 155.618 77.1023 155.783 76.825C155.956 76.5477 156.221 76.3397 156.576 76.201C156.94 76.0623 157.408 75.993 157.98 75.993C158.223 75.993 158.5 76.0017 158.812 76.019C159.133 76.0363 159.445 76.0623 159.748 76.097C160.051 76.123 160.298 76.1533 160.489 76.188V76.812H157.811C157.369 76.812 157.027 76.8857 156.784 77.033C156.55 77.1803 156.433 77.4663 156.433 77.891V78.177C156.433 78.4457 156.489 78.6493 156.602 78.788C156.715 78.918 156.871 79.0047 157.07 79.048C157.278 79.0913 157.516 79.113 157.785 79.113H158.773C159.406 79.113 159.895 79.2603 160.242 79.555C160.589 79.8497 160.762 80.2743 160.762 80.829V81.31C160.762 81.778 160.654 82.142 160.437 82.402C160.229 82.6533 159.939 82.831 159.566 82.935C159.202 83.0303 158.773 83.078 158.279 83.078Z" fill="white"/>
<defs>
<filter id="filter0_b_122_60" x="-16" y="-16" width="229" height="136" filterUnits="userSpaceOnUse" color-interpolation-filters="sRGB">
<feFlood flood-opacity="0" result="BackgroundImageFix"/>
<feGaussianBlur in="BackgroundImageFix" stdDeviation="8"/>
<feComposite in2="SourceAlpha" operator="in" result="effect1_backgroundBlur_122_60"/>
<feBlend mode="normal" in="SourceGraphic" in2="effect1_backgroundBlur_122_60" result="shape"/>
</filter>
</defs>
</svg>
